<svg xmlns="http://www.w3.org/2000/svg" width="40" height="4800" viewBox="0 0 40 4800" preserveAspectRatio="none">
  <defs>
    <linearGradient id="leftGrad" x1="0" y1="0" x2="0" y2="1">
      <stop offset="0%" stop-color="#C042E0"/>
      <stop offset="20%" stop-color="#9B47DC"/>
      <stop offset="40%" stop-color="#6C4BC7"/>
      <stop offset="60%" stop-color="#4A6FB8"/>
      <stop offset="80%" stop-color="#0092B8"/>
      <stop offset="100%" stop-color="#00B4D8"/>
    </linearGradient>
  </defs>
  <path fill="url(#leftGrad)" d="M0,0 L28,0
    C40,150 40,270 28,400 C16,530 16,670 28,800
    C40,930 40,1070 28,1200 C16,1330 16,1470 28,1600
    C40,1730 40,1870 28,2000 C16,2130 16,2270 28,2400
    C40,2530 40,2670 28,2800 C16,2930 16,3070 28,3200
    C40,3330 40,3470 28,3600 C16,3730 16,3870 28,4000
    C40,4130 40,4270 28,4400 C16,4530 16,4670 28,4800
    L0,4800 Z"/>
</svg>
